<!-- Generated by IcoMoon.io -->
<svg version="1.1" xmlns="http://www.w3.org/2000/svg" width="40" height="32" viewBox="0 0 40 32">
<title>logobeingray</title>
<path fill="#25b39a" d="M7.89 30.554c0.013-1.981 0.029-3.964 0.042-5.942 0.003-0.399-0.209-0.881-0.557-1.056-5.037-2.522-5.558-9.909-3.192-14.626 3.298-6.578 14.947-3.764 20.497-3.365 3.791 0.276 8.043-0.383 11.487-2.188 2.32-1.213 0.102-0.473-0.094-1.257 0.248 0.989 0.418 2 0.579 3.007 1.781 11.104-3.039 17.873-13.614 18.062-7.546 0.134-11.182 1.537-17.067 6.502-1.14 0.966 0.461 2.679 1.59 1.727 6.085-5.135 10.115-5.691 17.837-5.827 3.965-0.071 8.454-1.334 10.914-5.003 3.679-5.488 3.528-13.12 1.847-19.424-0.196-0.743-1.021-1.148-1.65-0.728-10.259 6.851-28.232-4.773-34.948 8.627-2.174 4.333-1.088 10.155 1.496 13.733 2.005 2.774 3.039 1.623 2.607 4.788-0.132 0.98-0.012 1.982-0.022 2.972-0.012 1.576 2.237 1.574 2.249 0z"></path>
<path fill="#25b39a" d="M14.288 14.362c0 0.959-0.716 1.734-1.597 1.734s-1.594-0.776-1.594-1.734c0-0.951 0.713-1.731 1.594-1.731s1.597 0.78 1.597 1.731z"></path>
<path fill="#25b39a" d="M22.015 14.362c0 0.959-0.711 1.734-1.592 1.734s-1.592-0.776-1.592-1.734c0-0.951 0.712-1.731 1.592-1.731s1.592 0.78 1.592 1.731z"></path>
<path fill="#25b39a" d="M29.193 14.362c0 0.959-0.712 1.734-1.592 1.734s-1.593-0.776-1.593-1.734c0-0.951 0.713-1.731 1.593-1.731s1.592 0.78 1.592 1.731z"></path>
</svg>
